<svg xmlns="http://www.w3.org/2000/svg" version="1.1" xmlns:xlink="http://www.w3.org/1999/xlink" xmlns:svgjs="http://svgjs.com/svgjs" width="30" height="30" x="0" y="0" viewBox="0 0 1707 1707" xml:space="preserve" class=""><g><g id="Layer_x0020_1"><path d="m852 1707c-5 0-10-2-15-4l-721-402c-9-6-15-16-15-27v-840c0-11 6-21 15-27l723-403c9-5 20-5 29 0l723 403c9 6 15 16 15 27v841c0 11-6 21-16 26l-724 402c-4 2-9 4-14 4zm516-524c-17 0-30-13-30-30v-581l-499-278c-35-20-6-72 29-53l514 287c10 6 16 16 16 27v598c0 17-14 30-30 30zm-1207 74 691 385 694-385v-806l-693-387-692 387z" fill-rule="#000000" fill="#000000" data-original="#000000" class=""></path><path d="m161 1257 691 385 694-385v-806l-693-387-692 387zm1207-74c-17 0-30-13-30-30v-581l-499-278c-35-20-6-72 29-53l514 287c10 6 16 16 16 27v598c0 17-14 30-30 30z" fill="#45b26b" data-original="#000000" class=""></path></g></g></svg>